<svg width="400" height="380" viewBox="0 0 400 380" fill="none" xmlns="http://www.w3.org/2000/svg">
<rect width="400" height="380" rx="50" fill="url(#paint0_linear_357_8)"/>
<path d="M41.9432 139.182V161H39.3864L27.4972 143.869H27.2841V161H24.642V139.182H27.1989L39.1307 156.355H39.3438V139.182H41.9432ZM53.5368 161.341C52.0595 161.341 50.7633 160.989 49.6483 160.286C48.5403 159.583 47.6738 158.599 47.0488 157.335C46.4309 156.071 46.122 154.594 46.122 152.903C46.122 151.199 46.4309 149.711 47.0488 148.44C47.6738 147.168 48.5403 146.181 49.6483 145.478C50.7633 144.775 52.0595 144.423 53.5368 144.423C55.014 144.423 56.3066 144.775 57.4146 145.478C58.5297 146.181 59.3961 147.168 60.014 148.44C60.639 149.711 60.9515 151.199 60.9515 152.903C60.9515 154.594 60.639 156.071 60.014 157.335C59.3961 158.599 58.5297 159.583 57.4146 160.286C56.3066 160.989 55.014 161.341 53.5368 161.341ZM53.5368 159.082C54.6589 159.082 55.5822 158.795 56.3066 158.219C57.0311 157.644 57.5673 156.888 57.9153 155.95C58.2633 155.013 58.4373 153.997 58.4373 152.903C58.4373 151.81 58.2633 150.79 57.9153 149.846C57.5673 148.901 57.0311 148.138 56.3066 147.555C55.5822 146.973 54.6589 146.682 53.5368 146.682C52.4146 146.682 51.4913 146.973 50.7669 147.555C50.0424 148.138 49.5062 148.901 49.1582 149.846C48.8102 150.79 48.6362 151.81 48.6362 152.903C48.6362 153.997 48.8102 155.013 49.1582 155.95C49.5062 156.888 50.0424 157.644 50.7669 158.219C51.4913 158.795 52.4146 159.082 53.5368 159.082ZM75.1019 154.31V144.636H77.6161V161H75.1019V158.23H74.9315C74.5479 159.061 73.9513 159.768 73.1417 160.35C72.332 160.925 71.3093 161.213 70.0735 161.213C69.0508 161.213 68.1417 160.989 67.3462 160.542C66.5508 160.087 65.9258 159.406 65.4712 158.496C65.0167 157.58 64.7894 156.426 64.7894 155.034V144.636H67.3036V154.864C67.3036 156.057 67.6374 157.009 68.305 157.719C68.9798 158.429 69.8391 158.784 70.8832 158.784C71.5082 158.784 72.1438 158.624 72.7901 158.305C73.4435 157.985 73.9904 157.495 74.4308 156.835C74.8782 156.174 75.1019 155.332 75.1019 154.31ZM93.812 148.301L91.5534 148.94C91.4114 148.564 91.2019 148.198 90.9249 147.843C90.655 147.481 90.2857 147.183 89.8169 146.948C89.3482 146.714 88.748 146.597 88.0165 146.597C87.0151 146.597 86.1806 146.827 85.513 147.289C84.8525 147.744 84.5222 148.322 84.5222 149.026C84.5222 149.651 84.7495 150.144 85.204 150.506C85.6586 150.869 86.3688 151.17 87.3347 151.412L89.7637 152.009C91.2267 152.364 92.3169 152.907 93.0343 153.638C93.7516 154.363 94.1103 155.297 94.1103 156.44C94.1103 157.378 93.8404 158.216 93.3006 158.955C92.7679 159.693 92.0222 160.276 91.0634 160.702C90.1046 161.128 88.9895 161.341 87.7182 161.341C86.0492 161.341 84.6678 160.979 83.574 160.254C82.4803 159.53 81.7878 158.472 81.4966 157.08L83.883 156.483C84.1103 157.364 84.54 158.024 85.1721 158.464C85.8113 158.905 86.6458 159.125 87.6756 159.125C88.8475 159.125 89.7779 158.876 90.4668 158.379C91.1628 157.875 91.5108 157.271 91.5108 156.568C91.5108 156 91.312 155.524 90.9142 155.141C90.5165 154.75 89.9057 154.459 89.0819 154.267L86.3546 153.628C84.856 153.273 83.7551 152.722 83.052 151.977C82.356 151.224 82.008 150.283 82.008 149.153C82.008 148.23 82.2672 147.413 82.7857 146.703C83.3113 145.993 84.025 145.435 84.927 145.031C85.8361 144.626 86.8659 144.423 88.0165 144.423C89.6358 144.423 90.9071 144.778 91.8304 145.489C92.7608 146.199 93.4213 147.136 93.812 148.301ZM106.332 167.136V144.636H108.761V147.236H109.06C109.244 146.952 109.5 146.589 109.827 146.149C110.161 145.702 110.636 145.304 111.254 144.956C111.879 144.601 112.724 144.423 113.79 144.423C115.168 144.423 116.382 144.768 117.433 145.457C118.484 146.146 119.305 147.122 119.894 148.386C120.484 149.651 120.778 151.142 120.778 152.861C120.778 154.594 120.484 156.096 119.894 157.367C119.305 158.631 118.488 159.612 117.444 160.308C116.4 160.996 115.196 161.341 113.832 161.341C112.781 161.341 111.94 161.167 111.308 160.819C110.675 160.464 110.189 160.062 109.848 159.615C109.507 159.161 109.244 158.784 109.06 158.486H108.847V167.136H106.332ZM108.804 152.818C108.804 154.054 108.985 155.144 109.347 156.089C109.71 157.026 110.239 157.761 110.935 158.294C111.631 158.82 112.483 159.082 113.491 159.082C114.543 159.082 115.42 158.805 116.123 158.251C116.833 157.69 117.366 156.937 117.721 155.993C118.083 155.041 118.264 153.983 118.264 152.818C118.264 151.668 118.087 150.631 117.732 149.707C117.384 148.777 116.854 148.042 116.144 147.502C115.441 146.955 114.557 146.682 113.491 146.682C112.469 146.682 111.609 146.941 110.913 147.46C110.217 147.971 109.692 148.688 109.337 149.612C108.982 150.528 108.804 151.597 108.804 152.818ZM131.261 161.341C129.784 161.341 128.488 160.989 127.373 160.286C126.265 159.583 125.398 158.599 124.773 157.335C124.156 156.071 123.847 154.594 123.847 152.903C123.847 151.199 124.156 149.711 124.773 148.44C125.398 147.168 126.265 146.181 127.373 145.478C128.488 144.775 129.784 144.423 131.261 144.423C132.739 144.423 134.031 144.775 135.139 145.478C136.254 146.181 137.121 147.168 137.739 148.44C138.364 149.711 138.676 151.199 138.676 152.903C138.676 154.594 138.364 156.071 137.739 157.335C137.121 158.599 136.254 159.583 135.139 160.286C134.031 160.989 132.739 161.341 131.261 161.341ZM131.261 159.082C132.384 159.082 133.307 158.795 134.031 158.219C134.756 157.644 135.292 156.888 135.64 155.95C135.988 155.013 136.162 153.997 136.162 152.903C136.162 151.81 135.988 150.79 135.64 149.846C135.292 148.901 134.756 148.138 134.031 147.555C133.307 146.973 132.384 146.682 131.261 146.682C130.139 146.682 129.216 146.973 128.491 147.555C127.767 148.138 127.231 148.901 126.883 149.846C126.535 150.79 126.361 151.81 126.361 152.903C126.361 153.997 126.535 155.013 126.883 155.95C127.231 156.888 127.767 157.644 128.491 158.219C129.216 158.795 130.139 159.082 131.261 159.082ZM152.827 154.31V144.636H155.341V161H152.827V158.23H152.656C152.273 159.061 151.676 159.768 150.866 160.35C150.057 160.925 149.034 161.213 147.798 161.213C146.775 161.213 145.866 160.989 145.071 160.542C144.275 160.087 143.65 159.406 143.196 158.496C142.741 157.58 142.514 156.426 142.514 155.034V144.636H145.028V154.864C145.028 156.057 145.362 157.009 146.03 157.719C146.704 158.429 147.564 158.784 148.608 158.784C149.233 158.784 149.868 158.624 150.515 158.305C151.168 157.985 151.715 157.495 152.155 156.835C152.603 156.174 152.827 155.332 152.827 154.31ZM173.326 144.636L167.275 161H164.718L158.667 144.636H161.395L165.912 157.676H166.082L170.599 144.636H173.326ZM182.707 161.341C181.229 161.341 179.933 160.989 178.818 160.286C177.71 159.583 176.844 158.599 176.219 157.335C175.601 156.071 175.292 154.594 175.292 152.903C175.292 151.199 175.601 149.711 176.219 148.44C176.844 147.168 177.71 146.181 178.818 145.478C179.933 144.775 181.229 144.423 182.707 144.423C184.184 144.423 185.477 144.775 186.585 145.478C187.7 146.181 188.566 147.168 189.184 148.44C189.809 149.711 190.121 151.199 190.121 152.903C190.121 154.594 189.809 156.071 189.184 157.335C188.566 158.599 187.7 159.583 186.585 160.286C185.477 160.989 184.184 161.341 182.707 161.341ZM182.707 159.082C183.829 159.082 184.752 158.795 185.477 158.219C186.201 157.644 186.737 156.888 187.085 155.95C187.433 155.013 187.607 153.997 187.607 152.903C187.607 151.81 187.433 150.79 187.085 149.846C186.737 148.901 186.201 148.138 185.477 147.555C184.752 146.973 183.829 146.682 182.707 146.682C181.585 146.682 180.661 146.973 179.937 147.555C179.212 148.138 178.676 148.901 178.328 149.846C177.98 150.79 177.806 151.81 177.806 152.903C177.806 153.997 177.98 155.013 178.328 155.95C178.676 156.888 179.212 157.644 179.937 158.219C180.661 158.795 181.585 159.082 182.707 159.082ZM196.474 151.156V161H193.959V144.636H196.388V147.193H196.601C196.985 146.362 197.567 145.695 198.349 145.19C199.13 144.679 200.138 144.423 201.374 144.423C202.482 144.423 203.452 144.651 204.282 145.105C205.113 145.553 205.76 146.234 206.221 147.151C206.683 148.06 206.914 149.21 206.914 150.602V161H204.4V150.773C204.4 149.487 204.066 148.486 203.398 147.768C202.731 147.044 201.814 146.682 200.65 146.682C199.847 146.682 199.13 146.856 198.498 147.204C197.873 147.552 197.379 148.06 197.017 148.727C196.655 149.395 196.474 150.205 196.474 151.156ZM223.099 148.301L220.841 148.94C220.699 148.564 220.489 148.198 220.212 147.843C219.942 147.481 219.573 147.183 219.104 146.948C218.635 146.714 218.035 146.597 217.304 146.597C216.302 146.597 215.468 146.827 214.8 147.289C214.14 147.744 213.809 148.322 213.809 149.026C213.809 149.651 214.037 150.144 214.491 150.506C214.946 150.869 215.656 151.17 216.622 151.412L219.051 152.009C220.514 152.364 221.604 152.907 222.321 153.638C223.039 154.363 223.397 155.297 223.397 156.44C223.397 157.378 223.127 158.216 222.588 158.955C222.055 159.693 221.309 160.276 220.35 160.702C219.392 161.128 218.277 161.341 217.005 161.341C215.336 161.341 213.955 160.979 212.861 160.254C211.767 159.53 211.075 158.472 210.784 157.08L213.17 156.483C213.397 157.364 213.827 158.024 214.459 158.464C215.098 158.905 215.933 159.125 216.963 159.125C218.135 159.125 219.065 158.876 219.754 158.379C220.45 157.875 220.798 157.271 220.798 156.568C220.798 156 220.599 155.524 220.201 155.141C219.804 154.75 219.193 154.459 218.369 154.267L215.642 153.628C214.143 153.273 213.042 152.722 212.339 151.977C211.643 151.224 211.295 150.283 211.295 149.153C211.295 148.23 211.554 147.413 212.073 146.703C212.598 145.993 213.312 145.435 214.214 145.031C215.123 144.626 216.153 144.423 217.304 144.423C218.923 144.423 220.194 144.778 221.118 145.489C222.048 146.199 222.708 147.136 223.099 148.301ZM31.1619 197.341C29.5852 197.341 28.2251 196.993 27.0817 196.297C25.9453 195.594 25.0682 194.614 24.4503 193.357C23.8395 192.092 23.5341 190.622 23.5341 188.946C23.5341 187.27 23.8395 185.793 24.4503 184.514C25.0682 183.229 25.9276 182.227 27.0284 181.51C28.1364 180.786 29.429 180.423 30.9062 180.423C31.7585 180.423 32.6001 180.565 33.4311 180.849C34.2621 181.134 35.0185 181.595 35.7003 182.234C36.3821 182.866 36.9254 183.705 37.3303 184.749C37.7351 185.793 37.9375 187.078 37.9375 188.605V189.67H25.3239V187.497H35.3807C35.3807 186.574 35.196 185.75 34.8267 185.026C34.4645 184.301 33.946 183.729 33.2713 183.31C32.6037 182.891 31.8153 182.682 30.9062 182.682C29.9048 182.682 29.0384 182.93 28.3068 183.428C27.5824 183.918 27.0249 184.557 26.6342 185.345C26.2436 186.134 26.0483 186.979 26.0483 187.881V189.33C26.0483 190.565 26.2614 191.613 26.6875 192.472C27.1207 193.325 27.7209 193.974 28.4879 194.422C29.255 194.862 30.1463 195.082 31.1619 195.082C31.8224 195.082 32.419 194.99 32.9517 194.805C33.4915 194.614 33.9567 194.33 34.3473 193.953C34.7379 193.57 35.0398 193.094 35.2528 192.526L37.6818 193.207C37.4261 194.031 36.9964 194.756 36.3928 195.381C35.7891 195.999 35.0433 196.482 34.1555 196.83C33.2678 197.17 32.2699 197.341 31.1619 197.341ZM29.6278 178.42L32.2273 173.477H35.1676L31.8438 178.42H29.6278ZM48.3672 203.477C47.1527 203.477 46.1087 203.321 45.2351 203.009C44.3615 202.703 43.6335 202.298 43.0511 201.794C42.4759 201.297 42.0178 200.764 41.6768 200.196L43.6797 198.79C43.907 199.088 44.1946 199.429 44.5426 199.812C44.8906 200.203 45.3665 200.54 45.9702 200.825C46.581 201.116 47.38 201.261 48.3672 201.261C49.6882 201.261 50.7784 200.942 51.6378 200.303C52.4972 199.663 52.9268 198.662 52.9268 197.298V193.974H52.7138C52.5291 194.273 52.2663 194.642 51.9254 195.082C51.5916 195.516 51.1087 195.903 50.4766 196.244C49.8516 196.577 49.0064 196.744 47.9411 196.744C46.62 196.744 45.4339 196.432 44.3828 195.807C43.3388 195.182 42.5114 194.273 41.9006 193.08C41.2969 191.886 40.995 190.437 40.995 188.733C40.995 187.057 41.2898 185.597 41.8793 184.354C42.4688 183.104 43.2891 182.138 44.3402 181.457C45.3913 180.768 46.6058 180.423 47.9837 180.423C49.049 180.423 49.8942 180.601 50.5192 180.956C51.1513 181.304 51.6342 181.702 51.968 182.149C52.3089 182.589 52.5717 182.952 52.7564 183.236H53.0121V180.636H55.4411V197.469C55.4411 198.875 55.1214 200.018 54.4822 200.899C53.8501 201.787 52.9979 202.437 51.9254 202.849C50.8601 203.268 49.674 203.477 48.3672 203.477ZM48.282 194.486C49.2905 194.486 50.1428 194.255 50.8388 193.793C51.5348 193.332 52.0639 192.668 52.4261 191.801C52.7884 190.935 52.9695 189.898 52.9695 188.69C52.9695 187.511 52.7919 186.471 52.4368 185.569C52.0817 184.667 51.5561 183.96 50.8601 183.449C50.1641 182.937 49.3047 182.682 48.282 182.682C47.2166 182.682 46.3288 182.952 45.6186 183.491C44.9155 184.031 44.3864 184.756 44.0312 185.665C43.6832 186.574 43.5092 187.582 43.5092 188.69C43.5092 189.827 43.6868 190.832 44.0419 191.705C44.4041 192.572 44.9368 193.254 45.6399 193.751C46.3501 194.241 47.2308 194.486 48.282 194.486ZM64.8587 197.384C63.8217 197.384 62.8807 197.188 62.0355 196.798C61.1903 196.4 60.5192 195.828 60.022 195.082C59.5249 194.33 59.2763 193.42 59.2763 192.355C59.2763 191.418 59.4609 190.658 59.8303 190.075C60.1996 189.486 60.6932 189.024 61.3111 188.69C61.929 188.357 62.6108 188.108 63.3565 187.945C64.1094 187.774 64.8658 187.639 65.6257 187.54C66.62 187.412 67.4261 187.316 68.044 187.252C68.669 187.181 69.1236 187.064 69.4077 186.901C69.6989 186.737 69.8445 186.453 69.8445 186.048V185.963C69.8445 184.912 69.5568 184.095 68.9815 183.513C68.4134 182.93 67.5504 182.639 66.3928 182.639C65.1925 182.639 64.2514 182.902 63.5696 183.428C62.8878 183.953 62.4084 184.514 62.1314 185.111L59.745 184.259C60.1712 183.264 60.7393 182.49 61.4496 181.936C62.1669 181.375 62.9482 180.984 63.7933 180.764C64.6456 180.537 65.4837 180.423 66.3075 180.423C66.8331 180.423 67.4368 180.487 68.1186 180.615C68.8075 180.736 69.4716 180.988 70.1108 181.371C70.7571 181.755 71.2933 182.334 71.7195 183.108C72.1456 183.882 72.3587 184.919 72.3587 186.219V197H69.8445V194.784H69.7166C69.5462 195.139 69.2621 195.519 68.8643 195.924C68.4666 196.329 67.9375 196.673 67.277 196.957C66.6165 197.241 65.8104 197.384 64.8587 197.384ZM65.2422 195.125C66.2365 195.125 67.0746 194.93 67.7564 194.539C68.4453 194.148 68.9638 193.644 69.3118 193.026C69.6669 192.408 69.8445 191.759 69.8445 191.077V188.776C69.7379 188.903 69.5036 189.021 69.1413 189.127C68.7862 189.227 68.3743 189.315 67.9055 189.393C67.4439 189.464 66.9929 189.528 66.5526 189.585C66.1193 189.635 65.7678 189.678 65.4979 189.713C64.8445 189.798 64.2337 189.937 63.6655 190.129C63.1044 190.313 62.6499 190.594 62.3018 190.97C61.9609 191.339 61.7905 191.844 61.7905 192.483C61.7905 193.357 62.1136 194.017 62.7599 194.464C63.4134 194.905 64.2408 195.125 65.2422 195.125ZM79.4618 175.182V197H76.9476V175.182H79.4618ZM90.9276 197.341C89.3509 197.341 87.9908 196.993 86.8473 196.297C85.7109 195.594 84.8338 194.614 84.2159 193.357C83.6051 192.092 83.2997 190.622 83.2997 188.946C83.2997 187.27 83.6051 185.793 84.2159 184.514C84.8338 183.229 85.6932 182.227 86.794 181.51C87.902 180.786 89.1946 180.423 90.6719 180.423C91.5241 180.423 92.3658 180.565 93.1967 180.849C94.0277 181.134 94.7841 181.595 95.4659 182.234C96.1477 182.866 96.6911 183.705 97.0959 184.749C97.5007 185.793 97.7031 187.078 97.7031 188.605V189.67H85.0895V187.497H95.1463C95.1463 186.574 94.9616 185.75 94.5923 185.026C94.2301 184.301 93.7116 183.729 93.0369 183.31C92.3693 182.891 91.581 182.682 90.6719 182.682C89.6705 182.682 88.804 182.93 88.0724 183.428C87.348 183.918 86.7905 184.557 86.3999 185.345C86.0092 186.134 85.8139 186.979 85.8139 187.881V189.33C85.8139 190.565 86.027 191.613 86.4531 192.472C86.8864 193.325 87.4865 193.974 88.2536 194.422C89.0206 194.862 89.9119 195.082 90.9276 195.082C91.5881 195.082 92.1847 194.99 92.7173 194.805C93.2571 194.614 93.7223 194.33 94.1129 193.953C94.5036 193.57 94.8054 193.094 95.0185 192.526L97.4474 193.207C97.1918 194.031 96.7621 194.756 96.1584 195.381C95.5547 195.999 94.8089 196.482 93.9212 196.83C93.0334 197.17 92.0355 197.341 90.9276 197.341ZM101.528 197V180.636H103.957V183.193H104.17C104.511 182.32 105.061 181.641 105.821 181.158C106.581 180.668 107.494 180.423 108.559 180.423C109.638 180.423 110.537 180.668 111.254 181.158C111.979 181.641 112.543 182.32 112.948 183.193H113.119C113.538 182.348 114.166 181.677 115.004 181.18C115.842 180.675 116.847 180.423 118.019 180.423C119.482 180.423 120.679 180.881 121.609 181.798C122.54 182.707 123.005 184.124 123.005 186.048V197H120.491V186.048C120.491 184.841 120.161 183.978 119.5 183.46C118.839 182.941 118.062 182.682 117.167 182.682C116.016 182.682 115.125 183.03 114.493 183.726C113.861 184.415 113.545 185.288 113.545 186.347V197H110.988V185.793C110.988 184.862 110.686 184.113 110.082 183.545C109.479 182.969 108.701 182.682 107.749 182.682C107.096 182.682 106.485 182.856 105.917 183.204C105.356 183.552 104.901 184.035 104.553 184.653C104.212 185.263 104.042 185.97 104.042 186.773V197H101.528ZM134.463 197.341C132.886 197.341 131.526 196.993 130.382 196.297C129.246 195.594 128.369 194.614 127.751 193.357C127.14 192.092 126.835 190.622 126.835 188.946C126.835 187.27 127.14 185.793 127.751 184.514C128.369 183.229 129.228 182.227 130.329 181.51C131.437 180.786 132.73 180.423 134.207 180.423C135.059 180.423 135.901 180.565 136.732 180.849C137.563 181.134 138.319 181.595 139.001 182.234C139.683 182.866 140.226 183.705 140.631 184.749C141.036 185.793 141.238 187.078 141.238 188.605V189.67H128.625V187.497H138.681C138.681 186.574 138.497 185.75 138.127 185.026C137.765 184.301 137.247 183.729 136.572 183.31C135.904 182.891 135.116 182.682 134.207 182.682C133.206 182.682 132.339 182.93 131.608 183.428C130.883 183.918 130.326 184.557 129.935 185.345C129.544 186.134 129.349 186.979 129.349 187.881V189.33C129.349 190.565 129.562 191.613 129.988 192.472C130.422 193.325 131.022 193.974 131.789 194.422C132.556 194.862 133.447 195.082 134.463 195.082C135.123 195.082 135.72 194.99 136.252 194.805C136.792 194.614 137.257 194.33 137.648 193.953C138.039 193.57 138.341 193.094 138.554 192.526L140.983 193.207C140.727 194.031 140.297 194.756 139.694 195.381C139.09 195.999 138.344 196.482 137.456 196.83C136.569 197.17 135.571 197.341 134.463 197.341ZM147.577 187.156V197H145.063V180.636H147.492V183.193H147.705C148.088 182.362 148.671 181.695 149.452 181.19C150.233 180.679 151.242 180.423 152.478 180.423C153.586 180.423 154.555 180.651 155.386 181.105C156.217 181.553 156.863 182.234 157.325 183.151C157.787 184.06 158.017 185.21 158.017 186.602V197H155.503V186.773C155.503 185.487 155.169 184.486 154.502 183.768C153.834 183.044 152.918 182.682 151.753 182.682C150.951 182.682 150.233 182.856 149.601 183.204C148.976 183.552 148.483 184.06 148.12 184.727C147.758 185.395 147.577 186.205 147.577 187.156ZM169.728 180.636V182.767H161.248V180.636H169.728ZM163.72 176.716H166.234V192.312C166.234 193.023 166.337 193.555 166.543 193.911C166.756 194.259 167.026 194.493 167.352 194.614C167.686 194.727 168.038 194.784 168.407 194.784C168.684 194.784 168.911 194.77 169.089 194.741C169.267 194.706 169.409 194.678 169.515 194.656L170.026 196.915C169.856 196.979 169.618 197.043 169.313 197.107C169.007 197.178 168.62 197.213 168.151 197.213C167.441 197.213 166.745 197.06 166.063 196.755C165.389 196.45 164.828 195.984 164.38 195.359C163.94 194.734 163.72 193.946 163.72 192.994V176.716ZM186.763 197.384C185.726 197.384 184.785 197.188 183.94 196.798C183.095 196.4 182.423 195.828 181.926 195.082C181.429 194.33 181.181 193.42 181.181 192.355C181.181 191.418 181.365 190.658 181.735 190.075C182.104 189.486 182.597 189.024 183.215 188.69C183.833 188.357 184.515 188.108 185.261 187.945C186.014 187.774 186.77 187.639 187.53 187.54C188.524 187.412 189.33 187.316 189.948 187.252C190.573 187.181 191.028 187.064 191.312 186.901C191.603 186.737 191.749 186.453 191.749 186.048V185.963C191.749 184.912 191.461 184.095 190.886 183.513C190.318 182.93 189.455 182.639 188.297 182.639C187.097 182.639 186.156 182.902 185.474 183.428C184.792 183.953 184.313 184.514 184.036 185.111L181.649 184.259C182.075 183.264 182.644 182.49 183.354 181.936C184.071 181.375 184.852 180.984 185.698 180.764C186.55 180.537 187.388 180.423 188.212 180.423C188.737 180.423 189.341 180.487 190.023 180.615C190.712 180.736 191.376 180.988 192.015 181.371C192.661 181.755 193.198 182.334 193.624 183.108C194.05 183.882 194.263 184.919 194.263 186.219V197H191.749V194.784H191.621C191.45 195.139 191.166 195.519 190.769 195.924C190.371 196.329 189.842 196.673 189.181 196.957C188.521 197.241 187.715 197.384 186.763 197.384ZM187.146 195.125C188.141 195.125 188.979 194.93 189.661 194.539C190.35 194.148 190.868 193.644 191.216 193.026C191.571 192.408 191.749 191.759 191.749 191.077V188.776C191.642 188.903 191.408 189.021 191.046 189.127C190.691 189.227 190.279 189.315 189.81 189.393C189.348 189.464 188.897 189.528 188.457 189.585C188.024 189.635 187.672 189.678 187.402 189.713C186.749 189.798 186.138 189.937 185.57 190.129C185.009 190.313 184.554 190.594 184.206 190.97C183.865 191.339 183.695 191.844 183.695 192.483C183.695 193.357 184.018 194.017 184.664 194.464C185.318 194.905 186.145 195.125 187.146 195.125ZM198.852 180.636H201.366V198.193C201.366 199.202 201.192 200.075 200.844 200.814C200.503 201.553 199.985 202.124 199.289 202.529C198.6 202.934 197.73 203.136 196.679 203.136C196.593 203.136 196.508 203.136 196.423 203.136C196.338 203.136 196.252 203.136 196.167 203.136V200.793C196.252 200.793 196.331 200.793 196.402 200.793C196.473 200.793 196.551 200.793 196.636 200.793C197.403 200.793 197.964 200.565 198.319 200.111C198.674 199.663 198.852 199.024 198.852 198.193V180.636ZM200.088 177.909C199.598 177.909 199.175 177.742 198.82 177.408C198.472 177.075 198.298 176.673 198.298 176.205C198.298 175.736 198.472 175.335 198.82 175.001C199.175 174.667 199.598 174.5 200.088 174.5C200.578 174.5 200.997 174.667 201.345 175.001C201.7 175.335 201.877 175.736 201.877 176.205C201.877 176.673 201.7 177.075 201.345 177.408C200.997 177.742 200.578 177.909 200.088 177.909ZM212.619 197.341C211.142 197.341 209.845 196.989 208.73 196.286C207.622 195.583 206.756 194.599 206.131 193.335C205.513 192.071 205.204 190.594 205.204 188.903C205.204 187.199 205.513 185.711 206.131 184.44C206.756 183.168 207.622 182.181 208.73 181.478C209.845 180.775 211.142 180.423 212.619 180.423C214.096 180.423 215.389 180.775 216.497 181.478C217.612 182.181 218.478 183.168 219.096 184.44C219.721 185.711 220.034 187.199 220.034 188.903C220.034 190.594 219.721 192.071 219.096 193.335C218.478 194.599 217.612 195.583 216.497 196.286C215.389 196.989 214.096 197.341 212.619 197.341ZM212.619 195.082C213.741 195.082 214.664 194.795 215.389 194.219C216.113 193.644 216.649 192.888 216.997 191.95C217.345 191.013 217.519 189.997 217.519 188.903C217.519 187.81 217.345 186.79 216.997 185.846C216.649 184.901 216.113 184.138 215.389 183.555C214.664 182.973 213.741 182.682 212.619 182.682C211.497 182.682 210.573 182.973 209.849 183.555C209.124 184.138 208.588 184.901 208.24 185.846C207.892 186.79 207.718 187.81 207.718 188.903C207.718 189.997 207.892 191.013 208.24 191.95C208.588 192.888 209.124 193.644 209.849 194.219C210.573 194.795 211.497 195.082 212.619 195.082ZM234.184 190.31V180.636H236.698V197H234.184V194.23H234.013C233.63 195.061 233.033 195.768 232.224 196.35C231.414 196.925 230.391 197.213 229.156 197.213C228.133 197.213 227.224 196.989 226.428 196.542C225.633 196.087 225.008 195.406 224.553 194.496C224.099 193.58 223.871 192.426 223.871 191.034V180.636H226.386V190.864C226.386 192.057 226.719 193.009 227.387 193.719C228.062 194.429 228.921 194.784 229.965 194.784C230.59 194.784 231.226 194.624 231.872 194.305C232.526 193.985 233.072 193.495 233.513 192.835C233.96 192.174 234.184 191.332 234.184 190.31ZM248.42 180.636V182.767H239.939V180.636H248.42ZM242.411 176.716H244.925V192.312C244.925 193.023 245.028 193.555 245.234 193.911C245.447 194.259 245.717 194.493 246.044 194.614C246.378 194.727 246.729 194.784 247.099 194.784C247.376 194.784 247.603 194.77 247.78 194.741C247.958 194.706 248.1 194.678 248.206 194.656L248.718 196.915C248.547 196.979 248.309 197.043 248.004 197.107C247.699 197.178 247.312 197.213 246.843 197.213C246.133 197.213 245.437 197.06 244.755 196.755C244.08 196.45 243.519 195.984 243.072 195.359C242.631 194.734 242.411 193.946 242.411 192.994V176.716ZM258.887 197.341C257.31 197.341 255.95 196.993 254.806 196.297C253.67 195.594 252.793 194.614 252.175 193.357C251.564 192.092 251.259 190.622 251.259 188.946C251.259 187.27 251.564 185.793 252.175 184.514C252.793 183.229 253.652 182.227 254.753 181.51C255.861 180.786 257.154 180.423 258.631 180.423C259.483 180.423 260.325 180.565 261.156 180.849C261.987 181.134 262.743 181.595 263.425 182.234C264.107 182.866 264.65 183.705 265.055 184.749C265.46 185.793 265.662 187.078 265.662 188.605V189.67H253.048V187.497H263.105C263.105 186.574 262.921 185.75 262.551 185.026C262.189 184.301 261.671 183.729 260.996 183.31C260.328 182.891 259.54 182.682 258.631 182.682C257.629 182.682 256.763 182.93 256.031 183.428C255.307 183.918 254.749 184.557 254.359 185.345C253.968 186.134 253.773 186.979 253.773 187.881V189.33C253.773 190.565 253.986 191.613 254.412 192.472C254.845 193.325 255.445 193.974 256.213 194.422C256.98 194.862 257.871 195.082 258.887 195.082C259.547 195.082 260.144 194.99 260.676 194.805C261.216 194.614 261.681 194.33 262.072 193.953C262.463 193.57 262.764 193.094 262.977 192.526L265.406 193.207C265.151 194.031 264.721 194.756 264.117 195.381C263.514 195.999 262.768 196.482 261.88 196.83C260.992 197.17 259.994 197.341 258.887 197.341ZM269.487 197V180.636H271.916V183.108H272.086C272.384 182.298 272.924 181.641 273.705 181.137C274.487 180.633 275.367 180.381 276.347 180.381C276.532 180.381 276.763 180.384 277.04 180.391C277.317 180.398 277.526 180.409 277.669 180.423V182.98C277.583 182.959 277.388 182.927 277.083 182.884C276.784 182.835 276.468 182.81 276.134 182.81C275.339 182.81 274.629 182.977 274.004 183.31C273.386 183.637 272.896 184.092 272.534 184.674C272.178 185.249 272.001 185.906 272.001 186.645V197H269.487ZM295.265 197.341C293.902 197.341 292.698 196.996 291.654 196.308C290.61 195.612 289.793 194.631 289.203 193.367C288.614 192.096 288.319 190.594 288.319 188.861C288.319 187.142 288.614 185.651 289.203 184.386C289.793 183.122 290.613 182.146 291.664 181.457C292.716 180.768 293.93 180.423 295.308 180.423C296.373 180.423 297.215 180.601 297.833 180.956C298.458 181.304 298.934 181.702 299.26 182.149C299.594 182.589 299.853 182.952 300.038 183.236H300.251V175.182H302.765V197H300.336V194.486H300.038C299.853 194.784 299.591 195.161 299.25 195.615C298.909 196.062 298.422 196.464 297.79 196.819C297.158 197.167 296.316 197.341 295.265 197.341ZM295.606 195.082C296.615 195.082 297.467 194.82 298.163 194.294C298.859 193.761 299.388 193.026 299.75 192.089C300.113 191.144 300.294 190.054 300.294 188.818C300.294 187.597 300.116 186.528 299.761 185.612C299.406 184.688 298.88 183.971 298.184 183.46C297.488 182.941 296.629 182.682 295.606 182.682C294.541 182.682 293.653 182.955 292.943 183.502C292.24 184.042 291.711 184.777 291.355 185.707C291.007 186.631 290.833 187.668 290.833 188.818C290.833 189.983 291.011 191.041 291.366 191.993C291.728 192.937 292.261 193.69 292.964 194.251C293.674 194.805 294.555 195.082 295.606 195.082ZM314.58 197.341C313.003 197.341 311.643 196.993 310.5 196.297C309.363 195.594 308.486 194.614 307.868 193.357C307.257 192.092 306.952 190.622 306.952 188.946C306.952 187.27 307.257 185.793 307.868 184.514C308.486 183.229 309.346 182.227 310.446 181.51C311.554 180.786 312.847 180.423 314.324 180.423C315.176 180.423 316.018 180.565 316.849 180.849C317.68 181.134 318.436 181.595 319.118 182.234C319.8 182.866 320.343 183.705 320.748 184.749C321.153 185.793 321.355 187.078 321.355 188.605V189.67H308.742V187.497H318.799C318.799 186.574 318.614 185.75 318.245 185.026C317.882 184.301 317.364 183.729 316.689 183.31C316.022 182.891 315.233 182.682 314.324 182.682C313.323 182.682 312.456 182.93 311.725 183.428C311 183.918 310.443 184.557 310.052 185.345C309.662 186.134 309.466 186.979 309.466 187.881V189.33C309.466 190.565 309.679 191.613 310.105 192.472C310.539 193.325 311.139 193.974 311.906 194.422C312.673 194.862 313.564 195.082 314.58 195.082C315.24 195.082 315.837 194.99 316.37 194.805C316.909 194.614 317.375 194.33 317.765 193.953C318.156 193.57 318.458 193.094 318.671 192.526L321.1 193.207C320.844 194.031 320.414 194.756 319.811 195.381C319.207 195.999 318.461 196.482 317.574 196.83C316.686 197.17 315.688 197.341 314.58 197.341ZM336.771 184.301L334.512 184.94C334.37 184.564 334.161 184.198 333.884 183.843C333.614 183.481 333.245 183.183 332.776 182.948C332.307 182.714 331.707 182.597 330.975 182.597C329.974 182.597 329.14 182.827 328.472 183.289C327.811 183.744 327.481 184.322 327.481 185.026C327.481 185.651 327.708 186.144 328.163 186.506C328.618 186.869 329.328 187.17 330.294 187.412L332.723 188.009C334.186 188.364 335.276 188.907 335.993 189.638C336.711 190.363 337.069 191.297 337.069 192.44C337.069 193.378 336.799 194.216 336.26 194.955C335.727 195.693 334.981 196.276 334.022 196.702C333.064 197.128 331.949 197.341 330.677 197.341C329.008 197.341 327.627 196.979 326.533 196.254C325.439 195.53 324.747 194.472 324.456 193.08L326.842 192.483C327.069 193.364 327.499 194.024 328.131 194.464C328.77 194.905 329.605 195.125 330.635 195.125C331.806 195.125 332.737 194.876 333.426 194.379C334.122 193.875 334.47 193.271 334.47 192.568C334.47 192 334.271 191.524 333.873 191.141C333.475 190.75 332.865 190.459 332.041 190.267L329.314 189.628C327.815 189.273 326.714 188.722 326.011 187.977C325.315 187.224 324.967 186.283 324.967 185.153C324.967 184.23 325.226 183.413 325.745 182.703C326.27 181.993 326.984 181.435 327.886 181.031C328.795 180.626 329.825 180.423 330.975 180.423C332.595 180.423 333.866 180.778 334.789 181.489C335.72 182.199 336.38 183.136 336.771 184.301ZM24.3011 239.136V216.636H26.7301V219.236H27.0284C27.2131 218.952 27.4688 218.589 27.7955 218.149C28.1293 217.702 28.6051 217.304 29.223 216.956C29.848 216.601 30.6932 216.423 31.7585 216.423C33.1364 216.423 34.3509 216.768 35.402 217.457C36.4531 218.146 37.2734 219.122 37.8629 220.386C38.4524 221.651 38.7472 223.142 38.7472 224.861C38.7472 226.594 38.4524 228.096 37.8629 229.367C37.2734 230.631 36.4567 231.612 35.4126 232.308C34.3686 232.996 33.1648 233.341 31.8011 233.341C30.75 233.341 29.9084 233.167 29.2763 232.819C28.6442 232.464 28.1577 232.062 27.8168 231.615C27.4759 231.161 27.2131 230.784 27.0284 230.486H26.8153V239.136H24.3011ZM26.7727 224.818C26.7727 226.054 26.9538 227.144 27.3161 228.089C27.6783 229.026 28.2074 229.761 28.9034 230.294C29.5994 230.82 30.4517 231.082 31.4602 231.082C32.5114 231.082 33.3885 230.805 34.0916 230.251C34.8018 229.69 35.3345 228.937 35.6896 227.993C36.0518 227.041 36.233 225.983 36.233 224.818C36.233 223.668 36.0554 222.631 35.7003 221.707C35.3523 220.777 34.8232 220.042 34.1129 219.502C33.4098 218.955 32.5256 218.682 31.4602 218.682C30.4375 218.682 29.5781 218.941 28.8821 219.46C28.1861 219.971 27.6605 220.688 27.3054 221.612C26.9503 222.528 26.7727 223.597 26.7727 224.818ZM45.0966 223.156V233H42.5824V211.182H45.0966V219.193H45.3097C45.6932 218.348 46.2685 217.677 47.0355 217.18C47.8097 216.675 48.8395 216.423 50.125 216.423C51.2401 216.423 52.2166 216.647 53.0547 217.094C53.8928 217.535 54.5426 218.213 55.0043 219.129C55.473 220.038 55.7074 221.196 55.7074 222.602V233H53.1932V222.773C53.1932 221.473 52.8558 220.468 52.1811 219.758C51.5135 219.04 50.5866 218.682 49.4006 218.682C48.5767 218.682 47.8381 218.856 47.1847 219.204C46.5384 219.552 46.027 220.06 45.6506 220.727C45.2813 221.395 45.0966 222.205 45.0966 223.156ZM66.9547 233.341C65.4775 233.341 64.1813 232.989 63.0662 232.286C61.9583 231.583 61.0918 230.599 60.4668 229.335C59.8489 228.071 59.54 226.594 59.54 224.903C59.54 223.199 59.8489 221.711 60.4668 220.44C61.0918 219.168 61.9583 218.181 63.0662 217.478C64.1813 216.775 65.4775 216.423 66.9547 216.423C68.432 216.423 69.7246 216.775 70.8326 217.478C71.9476 218.181 72.8141 219.168 73.432 220.44C74.057 221.711 74.3695 223.199 74.3695 224.903C74.3695 226.594 74.057 228.071 73.432 229.335C72.8141 230.599 71.9476 231.583 70.8326 232.286C69.7246 232.989 68.432 233.341 66.9547 233.341ZM66.9547 231.082C68.0769 231.082 69.0002 230.795 69.7246 230.219C70.449 229.644 70.9853 228.888 71.3333 227.95C71.6813 227.013 71.8553 225.997 71.8553 224.903C71.8553 223.81 71.6813 222.79 71.3333 221.846C70.9853 220.901 70.449 220.138 69.7246 219.555C69.0002 218.973 68.0769 218.682 66.9547 218.682C65.8326 218.682 64.9093 218.973 64.1848 219.555C63.4604 220.138 62.9242 220.901 62.5762 221.846C62.2282 222.79 62.0542 223.81 62.0542 224.903C62.0542 225.997 62.2282 227.013 62.5762 227.95C62.9242 228.888 63.4604 229.644 64.1848 230.219C64.9093 230.795 65.8326 231.082 66.9547 231.082ZM85.3239 216.636V218.767H76.8438V216.636H85.3239ZM79.3153 212.716H81.8295V228.312C81.8295 229.023 81.9325 229.555 82.1385 229.911C82.3516 230.259 82.6214 230.493 82.9482 230.614C83.282 230.727 83.6335 230.784 84.0028 230.784C84.2798 230.784 84.5071 230.77 84.6847 230.741C84.8622 230.706 85.0043 230.678 85.1108 230.656L85.6222 232.915C85.4517 232.979 85.2138 233.043 84.9084 233.107C84.603 233.178 84.2159 233.213 83.7472 233.213C83.0369 233.213 82.3409 233.06 81.6591 232.755C80.9844 232.45 80.4233 231.984 79.9759 231.359C79.5355 230.734 79.3153 229.946 79.3153 228.994V212.716ZM95.5778 233.341C94.1005 233.341 92.8043 232.989 91.6893 232.286C90.5813 231.583 89.7148 230.599 89.0898 229.335C88.4719 228.071 88.163 226.594 88.163 224.903C88.163 223.199 88.4719 221.711 89.0898 220.44C89.7148 219.168 90.5813 218.181 91.6893 217.478C92.8043 216.775 94.1005 216.423 95.5778 216.423C97.055 216.423 98.3477 216.775 99.4556 217.478C100.571 218.181 101.437 219.168 102.055 220.44C102.68 221.711 102.993 223.199 102.993 224.903C102.993 226.594 102.68 228.071 102.055 229.335C101.437 230.599 100.571 231.583 99.4556 232.286C98.3477 232.989 97.055 233.341 95.5778 233.341ZM95.5778 231.082C96.6999 231.082 97.6232 230.795 98.3477 230.219C99.0721 229.644 99.6083 228.888 99.9563 227.95C100.304 227.013 100.478 225.997 100.478 224.903C100.478 223.81 100.304 222.79 99.9563 221.846C99.6083 220.901 99.0721 220.138 98.3477 219.555C97.6232 218.973 96.6999 218.682 95.5778 218.682C94.4556 218.682 93.5323 218.973 92.8079 219.555C92.0835 220.138 91.5472 220.901 91.1992 221.846C90.8512 222.79 90.6772 223.81 90.6772 224.903C90.6772 225.997 90.8512 227.013 91.1992 227.95C91.5472 228.888 92.0835 229.644 92.8079 230.219C93.5323 230.795 94.4556 231.082 95.5778 231.082ZM118.421 220.301L116.163 220.94C116.021 220.564 115.811 220.198 115.534 219.843C115.264 219.481 114.895 219.183 114.426 218.948C113.958 218.714 113.357 218.597 112.626 218.597C111.624 218.597 110.79 218.827 110.122 219.289C109.462 219.744 109.132 220.322 109.132 221.026C109.132 221.651 109.359 222.144 109.813 222.506C110.268 222.869 110.978 223.17 111.944 223.412L114.373 224.009C115.836 224.364 116.926 224.907 117.644 225.638C118.361 226.363 118.72 227.297 118.72 228.44C118.72 229.378 118.45 230.216 117.91 230.955C117.377 231.693 116.632 232.276 115.673 232.702C114.714 233.128 113.599 233.341 112.328 233.341C110.659 233.341 109.277 232.979 108.183 232.254C107.09 231.53 106.397 230.472 106.106 229.08L108.492 228.483C108.72 229.364 109.149 230.024 109.781 230.464C110.421 230.905 111.255 231.125 112.285 231.125C113.457 231.125 114.387 230.876 115.076 230.379C115.772 229.875 116.12 229.271 116.12 228.568C116.12 228 115.921 227.524 115.524 227.141C115.126 226.75 114.515 226.459 113.691 226.267L110.964 225.628C109.465 225.273 108.365 224.722 107.661 223.977C106.965 223.224 106.617 222.283 106.617 221.153C106.617 220.23 106.877 219.413 107.395 218.703C107.921 217.993 108.634 217.435 109.536 217.031C110.445 216.626 111.475 216.423 112.626 216.423C114.245 216.423 115.517 216.778 116.44 217.489C117.37 218.199 118.031 219.136 118.421 220.301ZM137.589 233.341C136.112 233.341 134.816 232.989 133.701 232.286C132.593 231.583 131.727 230.599 131.102 229.335C130.484 228.071 130.175 226.594 130.175 224.903C130.175 223.199 130.484 221.711 131.102 220.44C131.727 219.168 132.593 218.181 133.701 217.478C134.816 216.775 136.112 216.423 137.589 216.423C139.067 216.423 140.359 216.775 141.467 217.478C142.582 218.181 143.449 219.168 144.067 220.44C144.692 221.711 145.004 223.199 145.004 224.903C145.004 226.594 144.692 228.071 144.067 229.335C143.449 230.599 142.582 231.583 141.467 232.286C140.359 232.989 139.067 233.341 137.589 233.341ZM137.589 231.082C138.712 231.082 139.635 230.795 140.359 230.219C141.084 229.644 141.62 228.888 141.968 227.95C142.316 227.013 142.49 225.997 142.49 224.903C142.49 223.81 142.316 222.79 141.968 221.846C141.62 220.901 141.084 220.138 140.359 219.555C139.635 218.973 138.712 218.682 137.589 218.682C136.467 218.682 135.544 218.973 134.82 219.555C134.095 220.138 133.559 220.901 133.211 221.846C132.863 222.79 132.689 223.81 132.689 224.903C132.689 225.997 132.863 227.013 133.211 227.95C133.559 228.888 134.095 229.644 134.82 230.219C135.544 230.795 136.467 231.082 137.589 231.082ZM159.155 226.31V216.636H161.669V233H159.155V230.23H158.984C158.601 231.061 158.004 231.768 157.194 232.35C156.385 232.925 155.362 233.213 154.126 233.213C153.104 233.213 152.194 232.989 151.399 232.542C150.604 232.087 149.979 231.406 149.524 230.496C149.069 229.58 148.842 228.426 148.842 227.034V216.636H151.356V226.864C151.356 228.057 151.69 229.009 152.358 229.719C153.032 230.429 153.892 230.784 154.936 230.784C155.561 230.784 156.197 230.624 156.843 230.305C157.496 229.985 158.043 229.495 158.483 228.835C158.931 228.174 159.155 227.332 159.155 226.31ZM180.89 233.341C179.527 233.341 178.323 232.996 177.279 232.308C176.235 231.612 175.418 230.631 174.828 229.367C174.239 228.096 173.944 226.594 173.944 224.861C173.944 223.142 174.239 221.651 174.828 220.386C175.418 219.122 176.238 218.146 177.289 217.457C178.341 216.768 179.555 216.423 180.933 216.423C181.998 216.423 182.84 216.601 183.458 216.956C184.083 217.304 184.559 217.702 184.885 218.149C185.219 218.589 185.478 218.952 185.663 219.236H185.876V211.182H188.39V233H185.961V230.486H185.663C185.478 230.784 185.216 231.161 184.875 231.615C184.534 232.062 184.047 232.464 183.415 232.819C182.783 233.167 181.941 233.341 180.89 233.341ZM181.231 231.082C182.24 231.082 183.092 230.82 183.788 230.294C184.484 229.761 185.013 229.026 185.375 228.089C185.738 227.144 185.919 226.054 185.919 224.818C185.919 223.597 185.741 222.528 185.386 221.612C185.031 220.688 184.505 219.971 183.809 219.46C183.113 218.941 182.254 218.682 181.231 218.682C180.166 218.682 179.278 218.955 178.568 219.502C177.865 220.042 177.336 220.777 176.98 221.707C176.632 222.631 176.458 223.668 176.458 224.818C176.458 225.983 176.636 227.041 176.991 227.993C177.353 228.937 177.886 229.69 178.589 230.251C179.299 230.805 180.18 231.082 181.231 231.082ZM200.205 233.341C198.628 233.341 197.268 232.993 196.125 232.297C194.988 231.594 194.111 230.614 193.493 229.357C192.882 228.092 192.577 226.622 192.577 224.946C192.577 223.27 192.882 221.793 193.493 220.514C194.111 219.229 194.971 218.227 196.071 217.51C197.179 216.786 198.472 216.423 199.949 216.423C200.801 216.423 201.643 216.565 202.474 216.849C203.305 217.134 204.061 217.595 204.743 218.234C205.425 218.866 205.968 219.705 206.373 220.749C206.778 221.793 206.98 223.078 206.98 224.605V225.67H194.367V223.497H204.424C204.424 222.574 204.239 221.75 203.87 221.026C203.507 220.301 202.989 219.729 202.314 219.31C201.647 218.891 200.858 218.682 199.949 218.682C198.948 218.682 198.081 218.93 197.35 219.428C196.625 219.918 196.068 220.557 195.677 221.345C195.287 222.134 195.091 222.979 195.091 223.881V225.33C195.091 226.565 195.304 227.613 195.73 228.472C196.164 229.325 196.764 229.974 197.531 230.422C198.298 230.862 199.189 231.082 200.205 231.082C200.865 231.082 201.462 230.99 201.995 230.805C202.534 230.614 203 230.33 203.39 229.953C203.781 229.57 204.083 229.094 204.296 228.526L206.725 229.207C206.469 230.031 206.039 230.756 205.436 231.381C204.832 231.999 204.086 232.482 203.199 232.83C202.311 233.17 201.313 233.341 200.205 233.341ZM222.396 220.301L220.137 220.94C219.995 220.564 219.786 220.198 219.509 219.843C219.239 219.481 218.87 219.183 218.401 218.948C217.932 218.714 217.332 218.597 216.6 218.597C215.599 218.597 214.765 218.827 214.097 219.289C213.436 219.744 213.106 220.322 213.106 221.026C213.106 221.651 213.333 222.144 213.788 222.506C214.243 222.869 214.953 223.17 215.919 223.412L218.348 224.009C219.811 224.364 220.901 224.907 221.618 225.638C222.336 226.363 222.694 227.297 222.694 228.44C222.694 229.378 222.424 230.216 221.885 230.955C221.352 231.693 220.606 232.276 219.647 232.702C218.689 233.128 217.574 233.341 216.302 233.341C214.633 233.341 213.252 232.979 212.158 232.254C211.064 231.53 210.372 230.472 210.081 229.08L212.467 228.483C212.694 229.364 213.124 230.024 213.756 230.464C214.395 230.905 215.23 231.125 216.26 231.125C217.431 231.125 218.362 230.876 219.051 230.379C219.747 229.875 220.095 229.271 220.095 228.568C220.095 228 219.896 227.524 219.498 227.141C219.1 226.75 218.49 226.459 217.666 226.267L214.939 225.628C213.44 225.273 212.339 224.722 211.636 223.977C210.94 223.224 210.592 222.283 210.592 221.153C210.592 220.23 210.851 219.413 211.37 218.703C211.895 217.993 212.609 217.435 213.511 217.031C214.42 216.626 215.45 216.423 216.6 216.423C218.22 216.423 219.491 216.778 220.414 217.489C221.345 218.199 222.005 219.136 222.396 220.301ZM248.297 216.636L242.246 233H239.689L233.638 216.636H236.365L240.882 229.676H241.053L245.57 216.636H248.297ZM251.616 233V216.636H254.13V233H251.616ZM252.894 213.909C252.404 213.909 251.981 213.742 251.626 213.408C251.278 213.075 251.104 212.673 251.104 212.205C251.104 211.736 251.278 211.335 251.626 211.001C251.981 210.667 252.404 210.5 252.894 210.5C253.384 210.5 253.803 210.667 254.151 211.001C254.506 211.335 254.684 211.736 254.684 212.205C254.684 212.673 254.506 213.075 254.151 213.408C253.803 213.742 253.384 213.909 252.894 213.909ZM264.914 233.341C263.55 233.341 262.346 232.996 261.302 232.308C260.258 231.612 259.441 230.631 258.852 229.367C258.262 228.096 257.968 226.594 257.968 224.861C257.968 223.142 258.262 221.651 258.852 220.386C259.441 219.122 260.262 218.146 261.313 217.457C262.364 216.768 263.578 216.423 264.956 216.423C266.022 216.423 266.863 216.601 267.481 216.956C268.106 217.304 268.582 217.702 268.909 218.149C269.243 218.589 269.502 218.952 269.686 219.236H269.9V211.182H272.414V233H269.985V230.486H269.686C269.502 230.784 269.239 231.161 268.898 231.615C268.557 232.062 268.071 232.464 267.439 232.819C266.806 233.167 265.965 233.341 264.914 233.341ZM265.255 231.082C266.263 231.082 267.115 230.82 267.811 230.294C268.507 229.761 269.037 229.026 269.399 228.089C269.761 227.144 269.942 226.054 269.942 224.818C269.942 223.597 269.765 222.528 269.409 221.612C269.054 220.688 268.529 219.971 267.833 219.46C267.137 218.941 266.277 218.682 265.255 218.682C264.189 218.682 263.301 218.955 262.591 219.502C261.888 220.042 261.359 220.777 261.004 221.707C260.656 222.631 260.482 223.668 260.482 224.818C260.482 225.983 260.659 227.041 261.015 227.993C261.377 228.937 261.909 229.69 262.613 230.251C263.323 230.805 264.203 231.082 265.255 231.082ZM284.228 233.341C282.652 233.341 281.292 232.993 280.148 232.297C279.012 231.594 278.135 230.614 277.517 229.357C276.906 228.092 276.6 226.622 276.6 224.946C276.6 223.27 276.906 221.793 277.517 220.514C278.135 219.229 278.994 218.227 280.095 217.51C281.203 216.786 282.495 216.423 283.973 216.423C284.825 216.423 285.667 216.565 286.498 216.849C287.328 217.134 288.085 217.595 288.767 218.234C289.449 218.866 289.992 219.705 290.397 220.749C290.801 221.793 291.004 223.078 291.004 224.605V225.67H278.39V223.497H288.447C288.447 222.574 288.262 221.75 287.893 221.026C287.531 220.301 287.012 219.729 286.338 219.31C285.67 218.891 284.882 218.682 283.973 218.682C282.971 218.682 282.105 218.93 281.373 219.428C280.649 219.918 280.091 220.557 279.701 221.345C279.31 222.134 279.115 222.979 279.115 223.881V225.33C279.115 226.565 279.328 227.613 279.754 228.472C280.187 229.325 280.787 229.974 281.554 230.422C282.321 230.862 283.213 231.082 284.228 231.082C284.889 231.082 285.485 230.99 286.018 230.805C286.558 230.614 287.023 230.33 287.414 229.953C287.804 229.57 288.106 229.094 288.319 228.526L290.748 229.207C290.493 230.031 290.063 230.756 289.459 231.381C288.855 231.999 288.11 232.482 287.222 232.83C286.334 233.17 285.336 233.341 284.228 233.341ZM282.694 214.42L285.294 209.477H288.234L284.91 214.42H282.694ZM301.476 233.341C299.999 233.341 298.703 232.989 297.588 232.286C296.48 231.583 295.613 230.599 294.988 229.335C294.37 228.071 294.061 226.594 294.061 224.903C294.061 223.199 294.37 221.711 294.988 220.44C295.613 219.168 296.48 218.181 297.588 217.478C298.703 216.775 299.999 216.423 301.476 216.423C302.953 216.423 304.246 216.775 305.354 217.478C306.469 218.181 307.336 219.168 307.953 220.44C308.578 221.711 308.891 223.199 308.891 224.903C308.891 226.594 308.578 228.071 307.953 229.335C307.336 230.599 306.469 231.583 305.354 232.286C304.246 232.989 302.953 233.341 301.476 233.341ZM301.476 231.082C302.598 231.082 303.522 230.795 304.246 230.219C304.971 229.644 305.507 228.888 305.855 227.95C306.203 227.013 306.377 225.997 306.377 224.903C306.377 223.81 306.203 222.79 305.855 221.846C305.507 220.901 304.971 220.138 304.246 219.555C303.522 218.973 302.598 218.682 301.476 218.682C300.354 218.682 299.431 218.973 298.706 219.555C297.982 220.138 297.446 220.901 297.098 221.846C296.75 222.79 296.576 223.81 296.576 224.903C296.576 225.997 296.75 227.013 297.098 227.95C297.446 228.888 297.982 229.644 298.706 230.219C299.431 230.795 300.354 231.082 301.476 231.082ZM324.32 220.301L322.061 220.94C321.919 220.564 321.71 220.198 321.433 219.843C321.163 219.481 320.794 219.183 320.325 218.948C319.856 218.714 319.256 218.597 318.524 218.597C317.523 218.597 316.688 218.827 316.021 219.289C315.36 219.744 315.03 220.322 315.03 221.026C315.03 221.651 315.257 222.144 315.712 222.506C316.166 222.869 316.877 223.17 317.843 223.412L320.271 224.009C321.735 224.364 322.825 224.907 323.542 225.638C324.259 226.363 324.618 227.297 324.618 228.44C324.618 229.378 324.348 230.216 323.808 230.955C323.276 231.693 322.53 232.276 321.571 232.702C320.612 233.128 319.497 233.341 318.226 233.341C316.557 233.341 315.176 232.979 314.082 232.254C312.988 231.53 312.296 230.472 312.004 229.08L314.391 228.483C314.618 229.364 315.048 230.024 315.68 230.464C316.319 230.905 317.154 231.125 318.183 231.125C319.355 231.125 320.286 230.876 320.975 230.379C321.671 229.875 322.019 229.271 322.019 228.568C322.019 228 321.82 227.524 321.422 227.141C321.024 226.75 320.414 226.459 319.59 226.267L316.862 225.628C315.364 225.273 314.263 224.722 313.56 223.977C312.864 223.224 312.516 222.283 312.516 221.153C312.516 220.23 312.775 219.413 313.294 218.703C313.819 217.993 314.533 217.435 315.435 217.031C316.344 216.626 317.374 216.423 318.524 216.423C320.144 216.423 321.415 216.778 322.338 217.489C323.269 218.199 323.929 219.136 324.32 220.301Z" fill="#F1F1F1"/>
<defs>
<linearGradient id="paint0_linear_357_8" x1="292" y1="24" x2="200" y2="380" gradientUnits="userSpaceOnUse">
<stop stop-color="#49A5F6" stop-opacity="0.8"/>
<stop offset="1" stop-color="#6F00FF" stop-opacity="0.4"/>
</linearGradient>
</defs>
</svg>
